<?xml version="1.0" encoding="UTF-8" standalone="no"?>
<!-- Created with Inkscape (http://www.inkscape.org/) -->

<svg
   width="99mm"
   height="50mm"
   viewBox="0 0 99 50"
   version="1.1"
   id="svg5"
   inkscape:version="1.1 (c68e22c387, 2021-05-23)"
   sodipodi:docname="404.svg"
   xmlns:inkscape="http://www.inkscape.org/namespaces/inkscape"
   xmlns:sodipodi="http://sodipodi.sourceforge.net/DTD/sodipodi-0.dtd"
   xmlns="http://www.w3.org/2000/svg"
   xmlns:svg="http://www.w3.org/2000/svg">
  <sodipodi:namedview
     id="namedview7"
     pagecolor="#505050"
     bordercolor="#ffffff"
     borderopacity="1"
     inkscape:pageshadow="0"
     inkscape:pageopacity="0"
     inkscape:pagecheckerboard="1"
     inkscape:document-units="mm"
     showgrid="false"
     inkscape:zoom="1.0494603"
     inkscape:cx="322.54673"
     inkscape:cy="367.33165"
     inkscape:window-width="1920"
     inkscape:window-height="1050"
     inkscape:window-x="1920"
     inkscape:window-y="0"
     inkscape:window-maximized="1"
     inkscape:current-layer="layer1" />
  <defs
     id="defs2" />
  <g
     inkscape:label="Camada 1"
     inkscape:groupmode="layer"
     id="layer1">
    <path
       style="fill:#b9924d;stroke:none;stroke-width:0.264583"
       d="m 11.280492,13.219603 c -0.888577,3.16203 -0.851138,6.36587 0.04104,9.525 0.659765,2.33627 2.170562,4.32726 1.724078,6.87917 -0.301678,1.72429 -1.417691,3.96187 -2.84816,4.9993 -0.9942518,0.72125 -2.4328708,1.03796 -3.2184708,2.01983 -0.882994,1.10384 -0.09554,2.80723 -0.245402,4.09337 -0.147002,1.2618 -0.970994,2.42834 -0.932762,3.70416 0.0291,0.97129 0.640107,3.65205 1.370463,4.3016 1.0414,0.92604 5.5036238,1.19433 6.6709388,0.41354 0.849498,-0.56806 0.610315,-1.83356 -0.03061,-2.46353 -1.409356,-1.38536 -3.791929,-1.45706 -2.654617,-4.10369 1.851527,-4.30874 6.542775,-5.6515 9.648507,-8.73125 0.152797,2.37808 -1.858566,6.16109 -0.729245,8.20208 1.852057,3.34725 7.662387,5.9653 11.312578,6.50108 1.284552,0.18865 4.244446,0.2458 4.825471,-1.2446 0.5969,-1.53088 -1.232958,-2.61064 -2.444221,-2.9374 -2.873904,-0.77523 -7.014104,-0.31036 -7.615237,-4.43574 -0.811477,-5.56604 6.548702,-8.77359 6.821487,-14.02292 1.874044,0.16457 6.090709,1.27185 7.140311,2.96677 0.855398,1.38166 0.770731,3.66713 1.160991,5.23531 0.396346,1.59253 1.221846,3.35889 0.854869,5.02709 -0.526256,2.39183 -3.381375,4.46272 -1.988608,7.14375 0.8636,1.6629 5.680075,5.45703 7.052204,2.06772 0.537369,-1.32742 -2.069571,-2.27807 -1.423458,-3.90843 0.7239,-1.82642 3.363648,-1.48061 4.493418,-2.95037 1.411817,-1.83647 0.788723,-5.92031 0.966523,-8.17351 0.99695,0.96573 3.007784,2.78236 3.548327,4.00289 0.711994,1.60734 0.528902,2.99587 1.76874,4.4524 1.8161,2.1336 3.855773,1.67561 6.059752,2.94534 1.587765,0.91467 2.468827,2.68182 3.969015,3.73354 2.537618,1.77906 6.101282,1.2782 8.995829,0.74083 -0.45112,-4.37594 -3.918477,-2.7506 -6.614579,-4.1603 -3.257286,-1.70286 -7.307527,-8.41561 -6.265863,-12.22852 0.366977,-1.34382 2.216415,-1.38959 3.355446,-1.58141 3.335867,-0.56198 6.117159,-0.69638 8.692086,1.74202 1.71741,1.62639 0.21431,4.59898 0.92366,6.70321 1.41446,4.19497 7.30673,9.39721 10.71906,3.9677 0.59426,-0.94563 0.84958,-2.09762 1.09644,-3.17395 3.68696,2.5871 5.43877,3.51605 9.33582,0.7501 0.7575,-0.53764 1.74096,-0.76994 1.94548,-1.81346 0.42519,-2.16852 -3.43297,-5.42978 -4.29075,-7.4033 -0.49636,-1.14247 0.12859,-2.02512 0.1143,-3.175 -0.0214,-1.69651 -0.95382,-5.17658 -1.85235,-6.61062 -3.00593,-4.79848 -9.253,-2.50084 -13.45459,-4.60163 -6.03647,-3.01818 -8.567727,-9.6648603 -15.081239,-12.2129803 -3.246967,-1.27019 -6.249988,0.19849 -9.525,-0.19844 -9.266502,-1.12316 -17.321213,-3.36283 -26.722917,-1.66405 -3.114675,0.56277 -6.272027,1.41142 -9.260417,2.4529 -1.224756,0.42686 -2.963783,1.66974 -4.233333,1.66304 -4.273603,-0.0225 -7.4212448,-9.28595 -12.6509988,-6.45779 -2.123811,1.1485 -0.973852,3.39863 0.04614,4.87151 1.162844,1.67918 2.842128,2.14011 4.356841,3.34732 1.79615,1.4315003 2.714863,3.1194103 5.0730148,3.8003203 z"
       id="path21" />
  </g>
</svg>
