<?xml version="1.0" encoding="UTF-8" standalone="no"?>
<!-- Created with Inkscape (http://www.inkscape.org/) -->

<svg
   width="94mm"
   height="97mm"
   viewBox="0 0 94 97"
   version="1.1"
   id="svg5"
   inkscape:version="1.1 (c68e22c387, 2021-05-23)"
   sodipodi:docname="500.svg"
   xmlns:inkscape="http://www.inkscape.org/namespaces/inkscape"
   xmlns:sodipodi="http://sodipodi.sourceforge.net/DTD/sodipodi-0.dtd"
   xmlns="http://www.w3.org/2000/svg"
   xmlns:svg="http://www.w3.org/2000/svg">
  <sodipodi:namedview
     id="namedview7"
     pagecolor="#505050"
     bordercolor="#ffffff"
     borderopacity="1"
     inkscape:pageshadow="0"
     inkscape:pageopacity="0"
     inkscape:pagecheckerboard="1"
     inkscape:document-units="mm"
     showgrid="false"
     inkscape:zoom="0.74208053"
     inkscape:cx="396.8572"
     inkscape:cy="561.25984"
     inkscape:window-width="1920"
     inkscape:window-height="1050"
     inkscape:window-x="1920"
     inkscape:window-y="0"
     inkscape:window-maximized="1"
     inkscape:current-layer="layer1" />
  <defs
     id="defs2" />
  <g
     inkscape:label="Camada 1"
     inkscape:groupmode="layer"
     id="layer1">
    <path
       style="fill:#b9924c;stroke:none;stroke-width:0.264583"
       d="m 31.082924,91.940421 h 0.264583 c 0.04498,3.81688 4.043627,3.17526 6.879167,3.175 5.535877,-2.7e-4 12.306827,-3.46393 14.109967,-8.99584 0.73316,-2.24975 0.46514,-4.80192 0.44106,-7.14375 -0.0103,-1.00885 -0.32465,-2.26456 0.59452,-2.97867 1.3118,-1.01918 4.9104,-0.19368 6.55029,-0.19633 4.22804,-0.007 7.88961,-1.8116 10.05416,-5.55625 h 0.264586 c 1.08214,1.4105 2.72203,2.36379 4.23333,3.2766 1.41102,0.85223 2.91862,1.38086 4.49792,1.82722 10.0494,2.8403 14.64468,-9.12231 13.75833,-17.01007 -1.90976,0.58182 -3.19855,2.92762 -4.76276,4.15687 -3.64438,2.86412 -10.88258,5.50096 -15.31303,2.70246 -1.47955,-0.93451 -0.96652,-4.70033 -1.32503,-6.33016 -1.00516,-4.56988 -3.529276,-8.62912 -6.170086,-12.43541 -8.6106,-12.41081 -22.63431,-19.69506 -32.729484,-30.69167 -1.485635,-1.61846 -3.044031,-4.38176 -3.281363,-6.6145796 -0.314589,-2.96069 1.035844,-4.80034 -2.299493,-6.63972 -3.525309,-1.94416003 -11.711252,-2.43919003 -15.069873,0.15743 -1.536436,1.18798 -1.051454,3.50176 -2.6923996,4.48945 -1.870869,1.1258 -6.569869,0.93874 -7.590367,2.8022 -1.98278695,3.6208196 2.686844,10.9963496 6.30264,11.6993396 1.779323,0.34608 4.0396576,-1.34434 5.6009636,-0.35454 1.813454,1.14935 2.551113,3.89149 3.118909,5.8375 1.630362,5.58827 -0.851694,11.94859 0.12647,17.72709 1.015207,5.99598 4.529138,10.79843 6.290734,16.40416 0.947473,3.01572 -0.26379,6.63019 -0.03202,9.78958 0.224631,3.0607 1.793611,5.93699 2.160588,8.99584 0.296862,2.47385 0.885031,6.84874 0.226218,9.2329 -0.469635,1.69942 -3.129491,2.20027 -2.250016,4.51379 1.346464,3.54171 7.322343,0.76094 8.041481,-1.84044 m 6.085417,-28.575 c -0.763323,1.32715 -1.874309,2.44184 -2.243932,3.96875 -0.987689,4.07855 3.024188,8.33861 5.191655,11.37708 1.308364,1.83409 5.203292,5.44222 4.168502,7.93353 -0.84772,2.04047 -4.221684,3.38693 -6.322475,3.0316 -1.251215,-0.21167 -2.392098,-1.0332 -3.704167,-0.86757 -1.38086,0.1741 -2.168525,1.52665 -3.175,2.33786 l 0.79375,-29.10417 5.291667,1.32292 m 33.337491,17.4625 -3.439576,8.20208 c -2.30003,0.41037 -4.44659,2.83924 -1.58248,4.4241 3.1668,1.75286 7.463106,1.49939 10.842886,0.69453 1.32662,-0.31591 3.4671,-0.98372 3.53722,-2.66277 0.049,-1.17554 -1.62428,-2.39183 -2.0701,-3.51419 -0.71385,-1.79599 -2.17382,-1.59809 -3.46922,-2.62837 -1.68566,-1.34091 -1.19618,-3.77931 -3.81873,-4.51538 z"
       id="path21" />
  </g>
</svg>
