<?xml version="1.0" encoding="UTF-8" standalone="no"?>
<!-- Created with Inkscape (http://www.inkscape.org/) -->

<svg
   width="98mm"
   height="91mm"
   viewBox="0 0 98 91"
   version="1.1"
   id="svg5"
   inkscape:version="1.1 (c68e22c387, 2021-05-23)"
   sodipodi:docname="logo_3.svg"
   xmlns:inkscape="http://www.inkscape.org/namespaces/inkscape"
   xmlns:sodipodi="http://sodipodi.sourceforge.net/DTD/sodipodi-0.dtd"
   xmlns="http://www.w3.org/2000/svg"
   xmlns:svg="http://www.w3.org/2000/svg">
  <sodipodi:namedview
     id="namedview7"
     pagecolor="#505050"
     bordercolor="#ffffff"
     borderopacity="1"
     inkscape:pageshadow="0"
     inkscape:pageopacity="0"
     inkscape:pagecheckerboard="1"
     inkscape:document-units="mm"
     showgrid="false"
     units="mm"
     inkscape:zoom="0.74208053"
     inkscape:cx="326.78394"
     inkscape:cy="237.84481"
     inkscape:window-width="1920"
     inkscape:window-height="1050"
     inkscape:window-x="1920"
     inkscape:window-y="0"
     inkscape:window-maximized="1"
     inkscape:current-layer="layer1" />
  <defs
     id="defs2" />
  <g
     inkscape:label="Camada 1"
     inkscape:groupmode="layer"
     id="layer1">
    <path
       style="fill:#593c20;stroke:none;stroke-width:0.264583"
       d="m 31.628418,25.96381 h 0.26458 c -0.4101,3.176058 -1.1893,6.294437 -1.04801,9.525 0.2024,4.618301 1.43536,9.412551 -0.79905,13.758332 -1.52982,2.974711 -4.3635,3.762111 -6.35502,6.085417 7.58534,5.117306 16.17133,7.176558 25.13541,8.277489 1.56263,0.191823 7.39273,1.376098 8.45926,0.02963 0.52626,-0.664369 0.24157,-1.96215 0.29581,-2.750873 0.11482,-1.676664 0.44555,-3.393281 0.83237,-5.027083 1.08427,-4.579408 3.59252,-8.721195 7.08131,-11.861005 6.49526,-5.845969 15.16301,-6.831277 22.225,-11.516519 6.66115,-4.419335 8.13514,-11.301676 9.10802,-18.691224 0.41619,-3.160712 0.8001,-7.4861204 -1.96824,-9.6853374 -2.23784,-1.77747 -5.65097,-0.98425 -8.19811,-0.398727 -5.76554,1.325827 -11.77317,4.061883 -17.72708,4.251854 -4.33441,0.138113 -6.71963,-3.726656 -10.31875,-5.476345 -4.21878,-2.05105003 -9.19798,-2.04708103 -13.75834,-1.61104803 -5.49433,0.52519803 -11.04291,2.40453303 -15.61041,5.51894303 -4.52649,3.086365 -8.17801,7.1876714 -12.7,10.3044624 -3.72348,2.566194 -9.7723897,5.096933 -11.9072797,9.267031 -2.01925,3.944408 -0.86646,9.222316 -1.43418,13.493749 -0.48686,3.663156 -1.07484,7.25805 -1.9709,10.847917 -0.40020997,1.603374 -1.03740997,3.526895 0.13925,4.970462 2.90806,3.56817 7.35467,-1.241954 10.1460297,-1.94945 3.24881,-0.823383 6.40344,-0.477308 9.52499,-2.034117 7.5864,-3.783806 7.19746,-10.578835 8.4889,-17.920228 0.45296,-2.574131 1.3835,-4.92125 2.09444,-7.408333 M 54.383638,9.4109446 c 3.61659,-0.953558 6.92679,5.7747964 2.90804,6.9955834 -3.82799,1.162844 -6.98183,-5.921639 -2.90804,-6.9955834 M 20.158468,57.732591 c -1.53882,0.972344 -2.90195,7.102475 -2.01639,8.663781 0.71358,1.258093 2.72864,2.101593 3.96134,2.752463 8.33781,4.40214 17.60193,6.88314 26.9875,7.63773 2.16032,0.17356 7.01913,1.45997 8.91566,0.23442 1.66291,-1.07448 1.02367,-5.42714 1.18348,-7.13634 0.077,-0.82339 0.45403,-1.980148 -0.42439,-2.509844 -2.30849,-1.392502 -7.73377,-0.642408 -10.4685,-0.970756 -6.58733,-0.79084 -13.17863,-2.464594 -19.31459,-4.988983 -2.16826,-0.891911 -4.30212,-1.875896 -6.35,-3.01969 -0.65643,-0.366448 -1.70047,-1.151731 -2.47411,-0.662781 m 37.13479,21.915704 c -4.00949,0.42915 -3.62426,11.29718 0.52785,10.67223 3.86477,-0.58155 3.6576,-11.12017 -0.52785,-10.67223 z"
       id="path511" />
  </g>
</svg>
