<?xml version="1.0" encoding="UTF-8" standalone="no"?>
<!-- Created with Inkscape (http://www.inkscape.org/) -->

<svg
   width="98mm"
   height="91mm"
   viewBox="0 0 98 91"
   version="1.1"
   id="svg5"
   inkscape:version="1.1 (c68e22c387, 2021-05-23)"
   sodipodi:docname="logo_1.svg"
   xmlns:inkscape="http://www.inkscape.org/namespaces/inkscape"
   xmlns:sodipodi="http://sodipodi.sourceforge.net/DTD/sodipodi-0.dtd"
   xmlns="http://www.w3.org/2000/svg"
   xmlns:svg="http://www.w3.org/2000/svg">
  <sodipodi:namedview
     id="namedview7"
     pagecolor="#505050"
     bordercolor="#ffffff"
     borderopacity="1"
     inkscape:pageshadow="0"
     inkscape:pageopacity="0"
     inkscape:pagecheckerboard="1"
     inkscape:document-units="mm"
     showgrid="false"
     units="mm"
     inkscape:zoom="0.74208053"
     inkscape:cx="326.78394"
     inkscape:cy="237.84481"
     inkscape:window-width="1920"
     inkscape:window-height="1050"
     inkscape:window-x="1920"
     inkscape:window-y="0"
     inkscape:window-maximized="1"
     inkscape:current-layer="layer1" />
  <defs
     id="defs2" />
  <g
     inkscape:label="Camada 1"
     inkscape:groupmode="layer"
     id="layer1">
    <path
       style="fill:#6d4020;stroke:none;stroke-width:0.264583"
       d="m 31.600396,25.906719 h 0.26458 c -0.4101,3.17606 -1.1893,6.29444 -1.04801,9.525 0.2024,4.6183 1.43536,9.41255 -0.79904,13.75833 -1.529824,2.97471 -4.363511,3.76211 -6.35503,6.08542 7.58534,5.1173 16.17133,7.17655 25.13542,8.27749 1.56262,0.19182 7.39272,1.37609 8.45925,0.0296 0.52626,-0.66437 0.24157,-1.96215 0.29581,-2.75087 0.11483,-1.67667 0.44556,-3.39328 0.83238,-5.02709 1.08426,-4.5794 3.592512,-8.72119 7.081302,-11.861 6.49526,-5.84597 15.16301,-6.83128 22.225,-11.51652 6.66115,-4.41934 8.13515,-11.30168 9.10802,-18.69123 0.41619,-3.16071 0.8001,-7.4861198 -1.96824,-9.6853298 -2.23784,-1.77747 -5.65097,-0.98425 -8.19811,-0.39873 -5.76554,1.32583 -11.77316,4.06188 -17.72708,4.25185 -4.33441,0.13812 -6.71962,-3.72665 -10.318752,-5.47634 -4.21878,-2.05104995 -9.19798,-2.04707995 -13.75833,-1.61104995 -5.49434,0.52519995 -11.04292,2.40452995 -15.61042,5.51893995 -4.526492,3.08637 -8.178006,7.1876698 -12.7,10.3044698 -3.723481,2.56619 -9.772385,5.09693 -11.907281,9.26703 -2.019247,3.94441 -0.866458,9.22231 -1.434174,13.49375 -0.48686,3.66315 -1.074843,7.25805 -1.970908,10.84791 -0.40020801,1.60338 -1.03740401,3.5269 0.139251,4.97047 2.908061,3.56817 7.354675,-1.24196 10.146029,-1.94945 3.248819,-0.82339 6.403446,-0.47731 9.525,-2.03412 7.586397,-3.78381 7.19746,-10.57884 8.488893,-17.92023 0.45296,-2.57413 1.3835,-4.92125 2.09444,-7.40833 M 54.355616,9.3538192 c 3.61659,-0.95355 6.926792,5.7747998 2.90804,6.9955898 -3.82799,1.16284 -6.98183,-5.92164 -2.90804,-6.9955898 M 20.130444,57.675499 c -1.538817,0.97235 -2.90195,7.10248 -2.01639,8.66378 0.713582,1.2581 2.728648,2.10159 3.961342,2.75246 8.33781,4.40214 17.60193,6.88314 26.9875,7.63773 2.16032,0.17357 7.01913,1.45997 8.91566,0.23442 1.66291,-1.07447 1.02368,-5.42713 1.18348,-7.13634 0.077,-0.82338 0.45403,-1.98014 -0.42439,-2.50984 -2.30849,-1.3925 -7.73377,-0.64241 -10.4685,-0.97075 -6.58733,-0.79084 -13.17863,-2.4646 -19.314584,-4.98899 -2.16826,-0.89191 -4.302125,-1.87589 -6.349999,-3.01969 -0.656432,-0.36644 -1.700477,-1.15173 -2.474119,-0.66278 m 37.134802,21.9157 c -4.0095,0.42916 -3.62427,11.29718 0.52784,10.67224 3.864772,-0.58156 3.657602,-11.12018 -0.52784,-10.67224 z"
       id="path39" />
  </g>
</svg>
