<?xml version="1.0" encoding="UTF-8" standalone="no"?>
<!-- Created with Inkscape (http://www.inkscape.org/) -->

<svg
   width="98mm"
   height="91mm"
   viewBox="0 0 98 91"
   version="1.1"
   id="svg5"
   inkscape:version="1.1 (c68e22c387, 2021-05-23)"
   sodipodi:docname="logo_2.svg"
   xmlns:inkscape="http://www.inkscape.org/namespaces/inkscape"
   xmlns:sodipodi="http://sodipodi.sourceforge.net/DTD/sodipodi-0.dtd"
   xmlns="http://www.w3.org/2000/svg"
   xmlns:svg="http://www.w3.org/2000/svg">
  <sodipodi:namedview
     id="namedview7"
     pagecolor="#505050"
     bordercolor="#ffffff"
     borderopacity="1"
     inkscape:pageshadow="0"
     inkscape:pageopacity="0"
     inkscape:pagecheckerboard="1"
     inkscape:document-units="mm"
     showgrid="false"
     units="mm"
     inkscape:zoom="0.74208053"
     inkscape:cx="326.78394"
     inkscape:cy="237.84481"
     inkscape:window-width="1920"
     inkscape:window-height="1050"
     inkscape:window-x="1920"
     inkscape:window-y="0"
     inkscape:window-maximized="1"
     inkscape:current-layer="layer1" />
  <defs
     id="defs2" />
  <g
     inkscape:label="Camada 1"
     inkscape:groupmode="layer"
     id="layer1">
    <path
       style="fill:#bb914c;stroke:none;stroke-width:0.264583"
       d="m 31.481663,26.197079 h 0.264584 c -0.410104,3.17606 -1.189302,6.29444 -1.048015,9.525 0.202406,4.6183 1.435365,9.41255 -0.799041,13.75834 -1.529821,2.97471 -4.363508,3.76211 -6.355027,6.08541 7.585339,5.11731 16.171332,7.17656 25.135415,8.27749 1.562629,0.19182 7.392723,1.3761 8.459258,0.0296 0.526256,-0.66437 0.241565,-1.96215 0.295804,-2.75087 0.11483,-1.67667 0.445559,-3.39328 0.832379,-5.02708 1.084263,-4.57941 3.592513,-8.7212 7.081308,-11.86101 6.495254,-5.84597 15.163004,-6.83128 22.225004,-11.51652 6.66115,-4.41933 8.13514,-11.30167 9.10801,-18.69122 0.41619,-3.16071 0.8001,-7.4861196 -1.96823,-9.6853396 -2.23785,-1.77747 -5.65097,-0.98425 -8.19812,-0.39873 -5.76553,1.32583 -11.77316,4.06189 -17.72708,4.25186 -4.334404,0.13811 -6.719623,-3.72666 -10.31875,-5.47635 -4.218781,-2.05105001 -9.197974,-2.04708001 -13.758333,-1.61105 -5.494337,0.5252 -11.042914,2.40454 -15.610415,5.51895 -4.526492,3.08636 -8.178006,7.1876696 -12.7,10.3044596 -3.723481,2.56619 -9.772385,5.09693 -11.907281,9.26703 -2.019247,3.94441 -0.866458,9.22232 -1.434174,13.49375 -0.48686,3.66316 -1.074843,7.25805 -1.970908,10.84792 -0.40020797,1.60337 -1.03740401,3.52689 0.139251,4.97046 2.908061,3.56817 7.354675,-1.24196 10.146029,-1.94945 3.248819,-0.82338 6.403446,-0.47731 9.525,-2.03412 7.586397,-3.7838 7.19746,-10.57883 8.488891,-17.92023 0.452967,-2.57413 1.383506,-4.92125 2.094441,-7.40833 M 54.236887,9.6441894 c 3.61659,-0.95356 6.926792,5.7747996 2.908036,6.9955896 -3.827992,1.16284 -6.981825,-5.92164 -2.908036,-6.9955896 M 20.011712,57.965839 c -1.538817,0.97234 -2.90195,7.10247 -2.01639,8.66378 0.713582,1.25809 2.728648,2.10158 3.961342,2.75246 8.337814,4.40214 17.601934,6.88313 26.987499,7.63773 2.160322,0.17356 7.019131,1.45997 8.915664,0.23442 1.662906,-1.07448 1.023673,-5.42714 1.183481,-7.13635 0.07699,-0.82338 0.454025,-1.98014 -0.424392,-2.50983 -2.308489,-1.3925 -7.73377,-0.64241 -10.468503,-0.97076 -6.587331,-0.79084 -13.178631,-2.46459 -19.314583,-4.98898 -2.16826,-0.89191 -4.302125,-1.8759 -6.349999,-3.01969 -0.656432,-0.36645 -1.700477,-1.15173 -2.474119,-0.66278 m 37.134798,21.9157 c -4.009496,0.42915 -3.624262,11.29718 0.527844,10.67223 3.864768,-0.58155 3.6576,-11.12017 -0.527844,-10.67223 z"
       id="path275" />
  </g>
</svg>
